<svg width="20" height="20" viewBox="0 0 20 20" fill="none" xmlns="http://www.w3.org/2000/svg">
<path d="M12.5396 4.16732C13.3535 4.32612 14.1016 4.7242 14.688 5.3106C15.2744 5.897 15.6724 6.64504 15.8312 7.45898M12.5396 0.833984C14.2306 1.02185 15.8076 1.77913 17.0114 2.98149C18.2153 4.18385 18.9746 5.75983 19.1646 7.45065M18.3312 14.1007V16.6007C18.3322 16.8327 18.2846 17.0625 18.1917 17.2751C18.0987 17.4878 17.9623 17.6786 17.7913 17.8355C17.6203 17.9924 17.4184 18.1119 17.1985 18.1862C16.9787 18.2606 16.7457 18.2882 16.5146 18.2673C13.9503 17.9887 11.4871 17.1124 9.32291 15.709C7.30943 14.4295 5.60236 12.7225 4.32291 10.709C2.91456 8.53499 2.03811 6.05981 1.76458 3.48398C1.74375 3.25354 1.77114 3.02128 1.84499 2.802C1.91885 2.58272 2.03755 2.38123 2.19355 2.21034C2.34954 2.03945 2.53941 1.90291 2.75107 1.80942C2.96272 1.71593 3.19153 1.66754 3.42291 1.66732H5.92291C6.32733 1.66334 6.7194 1.80655 7.02604 2.07026C7.33269 2.33397 7.53297 2.70019 7.58958 3.10065C7.6951 3.90071 7.89079 4.68626 8.17291 5.44232C8.28503 5.74059 8.3093 6.06475 8.24283 6.37638C8.17637 6.68802 8.02196 6.97408 7.79791 7.20065L6.73958 8.25898C7.92587 10.3453 9.65329 12.0727 11.7396 13.259L12.7979 12.2007C13.0245 11.9766 13.3105 11.8222 13.6222 11.7557C13.9338 11.6893 14.258 11.7135 14.5562 11.8257C15.3123 12.1078 16.0979 12.3035 16.8979 12.409C17.3027 12.4661 17.6724 12.67 17.9367 12.9819C18.201 13.2938 18.3414 13.692 18.3312 14.1007Z" stroke="#E0E0E0" stroke-width="1.5" stroke-linecap="round" stroke-linejoin="round"/>
</svg>
