<?xml version="1.0" encoding="utf-8"?>
<!-- Generator: Adobe Illustrator 16.0.0, SVG Export Plug-In . SVG Version: 6.00 Build 0)  -->
<!DOCTYPE svg PUBLIC "-//W3C//DTD SVG 1.1//EN" "http://www.w3.org/Graphics/SVG/1.1/DTD/svg11.dtd">
<svg version="1.1" id="圖層_1" xmlns="http://www.w3.org/2000/svg" xmlns:xlink="http://www.w3.org/1999/xlink" x="0px" y="0px"
	 width="106px" height="19px" viewBox="0 0 106 19" enable-background="new 0 0 106 19" xml:space="preserve">
<path fill="#F2E820" d="M9.254,0l2.839,5.346l5.962,1.049l-4.207,4.352l0.845,5.994l-5.439-2.656L3.814,16.74l0.845-5.994
	L0.453,6.395l5.961-1.049L9.254,0z"/>
<path fill="#F2E820" d="M31.127,0l2.839,5.346l5.962,1.049l-4.207,4.352l0.845,5.994l-5.439-2.656l-5.439,2.656l0.845-5.994
	l-4.207-4.352l5.962-1.049L31.127,0z"/>
<path fill="#F2E820" d="M53,0l2.84,5.346l5.961,1.049l-4.207,4.352l0.846,5.994L53,14.084l-5.439,2.656l0.845-5.994l-4.207-4.352
	l5.962-1.049L53,0z"/>
<path fill="#F2E820" d="M74.873,0l2.84,5.346l5.961,1.049l-4.207,4.352l0.846,5.994l-5.439-2.656l-5.439,2.656l0.846-5.994
	l-4.207-4.352l5.961-1.049L74.873,0z"/>
<path fill="#F2E820" d="M96.746,0l2.84,5.346l5.961,1.049l-4.207,4.352l0.846,5.994l-5.439-2.656l-5.439,2.656l0.846-5.994
	l-4.207-4.352l5.961-1.049L96.746,0z"/>
</svg>
